<?xml version="1.0" encoding="utf-8"?>
<!-- Generator: Adobe Illustrator 19.1.1, SVG Export Plug-In . SVG Version: 6.00 Build 0)  -->
<!DOCTYPE svg PUBLIC "-//W3C//DTD SVG 1.1//EN" "http://www.w3.org/Graphics/SVG/1.1/DTD/svg11.dtd">
<svg version="1.1" id="Layer_1" xmlns="http://www.w3.org/2000/svg" xmlns:xlink="http://www.w3.org/1999/xlink" x="0px" y="0px"
	 viewBox="0 0 499 24" style="enable-background:new 0 0 499 24;" xml:space="preserve">
<style type="text/css">
	.st0{fill:#FBB03B;}
	.st1{fill:#007AFF;}
	.st2{fill:#FFFFFF;}
</style>
<g>
	<g>
		<g>
			<g>
				<path class="st0" d="M253.1,9.5h1.2v4.4h5.5V9.5h1.2v10.4h-1.2v-4.8h-5.5v4.8h-1.2V9.5z"/>
				<path class="st0" d="M269.6,18.7c-0.4,0.5-0.9,0.9-1.3,1.1c-0.5,0.2-1.1,0.3-1.7,0.3c-0.5,0-1-0.1-1.5-0.3
					c-0.4-0.2-0.8-0.4-1.1-0.8c-0.3-0.3-0.5-0.7-0.7-1.1c-0.2-0.4-0.2-0.9-0.2-1.4c0-0.5,0.1-1,0.3-1.5s0.4-0.8,0.7-1.1
					c0.3-0.3,0.7-0.6,1.1-0.7c0.4-0.2,0.9-0.3,1.4-0.3c0.5,0,0.9,0.1,1.3,0.2c0.4,0.2,0.7,0.4,1,0.7c0.3,0.3,0.5,0.7,0.7,1.1
					s0.2,1,0.2,1.5v0.4h-5.5c0,0.3,0.1,0.6,0.2,0.8c0.1,0.3,0.3,0.5,0.5,0.7c0.2,0.2,0.4,0.4,0.7,0.5c0.3,0.1,0.6,0.2,0.9,0.2
					c0.5,0,0.9-0.1,1.3-0.3c0.3-0.2,0.7-0.4,0.9-0.8L269.6,18.7z M268.6,15.9c0-0.6-0.2-1.1-0.6-1.4c-0.4-0.4-0.9-0.5-1.5-0.5
					s-1.1,0.2-1.5,0.5c-0.4,0.4-0.6,0.8-0.7,1.4H268.6z"/>
				<path class="st0" d="M271.7,8.8h1.1v11.1h-1.1V8.8z"/>
				<path class="st0" d="M275.1,13h1.1v1h0c0.3-0.4,0.7-0.7,1.1-0.9c0.4-0.2,0.9-0.3,1.4-0.3c0.5,0,1,0.1,1.5,0.3
					c0.4,0.2,0.8,0.4,1.1,0.8c0.3,0.3,0.6,0.7,0.7,1.1c0.2,0.4,0.3,0.9,0.3,1.4s-0.1,1-0.3,1.4c-0.2,0.4-0.4,0.8-0.7,1.1
					c-0.3,0.3-0.7,0.6-1.1,0.8c-0.4,0.2-0.9,0.3-1.3,0.3c-0.6,0-1.2-0.1-1.6-0.4c-0.5-0.3-0.8-0.6-1-1h0v4.6h-1.1V13z M276.2,16.5
					c0,0.4,0.1,0.7,0.2,1c0.1,0.3,0.3,0.6,0.5,0.8c0.2,0.2,0.5,0.4,0.8,0.5c0.3,0.1,0.6,0.2,1,0.2s0.7-0.1,1-0.2
					c0.3-0.1,0.6-0.3,0.8-0.5c0.2-0.2,0.4-0.5,0.5-0.8c0.1-0.3,0.2-0.6,0.2-1c0-0.4-0.1-0.7-0.2-1c-0.1-0.3-0.3-0.6-0.5-0.8
					c-0.2-0.2-0.5-0.4-0.8-0.5c-0.3-0.1-0.6-0.2-1-0.2s-0.7,0.1-1,0.2c-0.3,0.1-0.6,0.3-0.8,0.5c-0.2,0.2-0.4,0.5-0.5,0.8
					C276.3,15.8,276.2,16.1,276.2,16.5z"/>
				<path class="st0" d="M284,10.4c0-0.2,0.1-0.4,0.2-0.6c0.2-0.2,0.4-0.2,0.6-0.2c0.2,0,0.4,0.1,0.6,0.2c0.2,0.2,0.2,0.4,0.2,0.6
					c0,0.2-0.1,0.4-0.2,0.6c-0.2,0.2-0.4,0.2-0.6,0.2c-0.2,0-0.4-0.1-0.6-0.2C284,10.8,284,10.6,284,10.4z M284.2,13h1.1v6.9h-1.1
					V13z"/>
				<path class="st0" d="M287.6,14.7c0-0.3,0-0.6,0-0.9s0-0.5,0-0.7h1.1c0,0.2,0,0.4,0,0.6c0,0.2,0,0.4,0,0.6h0
					c0.1-0.2,0.2-0.3,0.3-0.5c0.1-0.2,0.3-0.3,0.5-0.4c0.2-0.1,0.4-0.2,0.7-0.3c0.2-0.1,0.5-0.1,0.8-0.1c0.5,0,0.8,0.1,1.2,0.2
					c0.3,0.1,0.6,0.3,0.8,0.6c0.2,0.2,0.4,0.5,0.5,0.9s0.2,0.7,0.2,1.1v4.2h-1.1v-4.1c0-0.6-0.1-1-0.4-1.4c-0.3-0.3-0.7-0.5-1.2-0.5
					c-0.4,0-0.7,0.1-1,0.2c-0.3,0.1-0.5,0.3-0.7,0.5c-0.2,0.2-0.3,0.5-0.4,0.8c-0.1,0.3-0.1,0.7-0.1,1.1v3.3h-1.1V14.7z"/>
				<path class="st0" d="M302.6,19.6c0,1.3-0.3,2.2-1,2.9c-0.6,0.7-1.6,1-2.8,1c-0.7,0-1.3-0.1-1.8-0.3c-0.5-0.2-1.1-0.5-1.5-1
					l0.8-0.9c0.4,0.4,0.7,0.7,1.2,0.9c0.4,0.2,0.9,0.3,1.4,0.3c0.5,0,0.9-0.1,1.3-0.2c0.3-0.2,0.6-0.4,0.8-0.6
					c0.2-0.3,0.3-0.6,0.4-0.9c0.1-0.3,0.1-0.7,0.1-1v-0.9h0c-0.3,0.4-0.6,0.8-1.1,1c-0.4,0.2-0.9,0.3-1.3,0.3c-0.5,0-1-0.1-1.5-0.3
					c-0.5-0.2-0.8-0.4-1.2-0.7c-0.3-0.3-0.6-0.7-0.7-1.1s-0.3-0.9-0.3-1.4c0-0.6,0.1-1.1,0.3-1.5c0.2-0.4,0.4-0.8,0.7-1.1
					c0.3-0.3,0.7-0.5,1.2-0.7c0.4-0.2,0.9-0.2,1.5-0.2c0.2,0,0.5,0,0.7,0.1c0.2,0.1,0.5,0.1,0.7,0.2c0.2,0.1,0.4,0.3,0.6,0.4
					c0.2,0.2,0.3,0.4,0.4,0.6h0V13h1.1V19.6z M296.6,16.5c0,0.4,0.1,0.7,0.2,1c0.1,0.3,0.3,0.6,0.5,0.8c0.2,0.2,0.5,0.4,0.8,0.5
					c0.3,0.1,0.6,0.2,0.9,0.2c0.4,0,0.7-0.1,1-0.2c0.3-0.1,0.6-0.3,0.8-0.6c0.2-0.2,0.4-0.5,0.5-0.8c0.1-0.3,0.2-0.6,0.2-0.9
					c0-0.4-0.1-0.7-0.2-1c-0.1-0.3-0.3-0.6-0.5-0.8c-0.2-0.2-0.5-0.4-0.8-0.5c-0.3-0.1-0.6-0.2-1-0.2c-0.4,0-0.7,0.1-1,0.2
					s-0.6,0.3-0.8,0.5c-0.2,0.2-0.4,0.5-0.5,0.8C296.7,15.8,296.6,16.1,296.6,16.5z"/>
				<path class="st0" d="M311.5,15.4l-3.9-5.9h1.6l2.9,4.7l3-4.7h1.5l-3.9,5.9v4.5h-1.2V15.4z"/>
				<path class="st0" d="M315.5,16.5c0-0.5,0.1-1,0.3-1.5c0.2-0.4,0.4-0.8,0.8-1.1c0.3-0.3,0.7-0.6,1.2-0.7c0.4-0.2,0.9-0.3,1.5-0.3
					s1,0.1,1.5,0.3c0.5,0.2,0.8,0.4,1.2,0.7c0.3,0.3,0.6,0.7,0.8,1.1s0.3,0.9,0.3,1.5s-0.1,1-0.3,1.5s-0.4,0.8-0.8,1.1
					c-0.3,0.3-0.7,0.6-1.2,0.7c-0.4,0.2-0.9,0.3-1.5,0.3s-1-0.1-1.5-0.3c-0.5-0.2-0.8-0.4-1.2-0.7c-0.3-0.3-0.6-0.7-0.8-1.1
					C315.6,17.5,315.5,17,315.5,16.5z M316.8,16.5c0,0.4,0.1,0.7,0.2,1c0.1,0.3,0.3,0.6,0.5,0.8c0.2,0.2,0.5,0.4,0.8,0.5
					c0.3,0.1,0.6,0.2,1,0.2c0.4,0,0.7-0.1,1-0.2c0.3-0.1,0.6-0.3,0.8-0.5c0.2-0.2,0.4-0.5,0.5-0.8c0.1-0.3,0.2-0.6,0.2-1
					c0-0.4-0.1-0.7-0.2-1c-0.1-0.3-0.3-0.6-0.5-0.8c-0.2-0.2-0.5-0.4-0.8-0.5s-0.6-0.2-1-0.2c-0.4,0-0.7,0.1-1,0.2s-0.6,0.3-0.8,0.5
					c-0.2,0.2-0.4,0.5-0.5,0.8C316.8,15.8,316.8,16.1,316.8,16.5z"/>
				<path class="st0" d="M330.6,18.3c0,0.3,0,0.6,0,0.9c0,0.3,0,0.5,0,0.7h-1.1c0-0.2,0-0.4,0-0.6s0-0.4,0-0.6h0
					c-0.1,0.2-0.2,0.3-0.3,0.5c-0.1,0.2-0.3,0.3-0.5,0.4s-0.4,0.2-0.7,0.3c-0.2,0.1-0.5,0.1-0.8,0.1c-0.5,0-0.8-0.1-1.2-0.2
					c-0.3-0.1-0.6-0.3-0.8-0.6c-0.2-0.2-0.4-0.5-0.5-0.9c-0.1-0.3-0.2-0.7-0.2-1.1V13h1.1v4.1c0,0.6,0.1,1,0.4,1.4
					c0.3,0.3,0.7,0.5,1.2,0.5c0.4,0,0.7-0.1,1-0.2c0.3-0.1,0.5-0.3,0.7-0.5c0.2-0.2,0.3-0.5,0.4-0.8c0.1-0.3,0.1-0.7,0.1-1.1V13h1.1
					V18.3z"/>
				<path class="st0" d="M337.1,9.5h3.2c0.4,0,0.9,0,1.3,0.1c0.4,0.1,0.8,0.2,1.1,0.4c0.3,0.2,0.6,0.5,0.8,0.8
					c0.2,0.3,0.3,0.7,0.3,1.2c0,0.6-0.2,1.1-0.5,1.5c-0.3,0.4-0.8,0.7-1.3,0.8v0c0.3,0,0.6,0.1,0.9,0.3c0.3,0.1,0.5,0.3,0.7,0.6
					c0.2,0.2,0.4,0.5,0.5,0.8c0.1,0.3,0.2,0.6,0.2,1c0,0.6-0.1,1.1-0.4,1.4c-0.2,0.4-0.6,0.7-0.9,0.9c-0.4,0.2-0.8,0.4-1.3,0.5
					s-1,0.1-1.4,0.1h-3.1V9.5z M338.3,13.9h1.7c0.3,0,0.6,0,0.9-0.1c0.3,0,0.5-0.1,0.8-0.2c0.2-0.1,0.4-0.3,0.5-0.5
					c0.1-0.2,0.2-0.5,0.2-0.9c0-0.3-0.1-0.6-0.2-0.8c-0.1-0.2-0.3-0.4-0.5-0.5c-0.2-0.1-0.5-0.2-0.7-0.2c-0.3,0-0.5-0.1-0.8-0.1
					h-1.8V13.9z M338.3,18.8h2.1c0.3,0,0.6,0,0.9-0.1c0.3-0.1,0.6-0.2,0.8-0.3c0.2-0.1,0.4-0.3,0.6-0.6c0.1-0.2,0.2-0.5,0.2-0.8
					c0-0.4-0.1-0.7-0.2-0.9c-0.1-0.2-0.3-0.4-0.6-0.6c-0.2-0.1-0.5-0.2-0.8-0.3c-0.3-0.1-0.6-0.1-0.9-0.1h-2.1V18.8z"/>
				<path class="st0" d="M352.1,18.3c0,0.3,0,0.6,0,0.9c0,0.3,0,0.5,0,0.7h-1.1c0-0.2,0-0.4,0-0.6s0-0.4,0-0.6h0
					c-0.1,0.2-0.2,0.3-0.3,0.5c-0.1,0.2-0.3,0.3-0.5,0.4s-0.4,0.2-0.7,0.3c-0.2,0.1-0.5,0.1-0.8,0.1c-0.5,0-0.8-0.1-1.2-0.2
					c-0.3-0.1-0.6-0.3-0.8-0.6c-0.2-0.2-0.4-0.5-0.5-0.9c-0.1-0.3-0.2-0.7-0.2-1.1V13h1.1v4.1c0,0.6,0.1,1,0.4,1.4
					c0.3,0.3,0.7,0.5,1.2,0.5c0.4,0,0.7-0.1,1-0.2c0.3-0.1,0.5-0.3,0.7-0.5c0.2-0.2,0.3-0.5,0.4-0.8c0.1-0.3,0.1-0.7,0.1-1.1V13h1.1
					V18.3z"/>
				<path class="st0" d="M354.1,10.4c0-0.2,0.1-0.4,0.2-0.6c0.2-0.2,0.4-0.2,0.6-0.2c0.2,0,0.4,0.1,0.6,0.2c0.2,0.2,0.2,0.4,0.2,0.6
					c0,0.2-0.1,0.4-0.2,0.6c-0.2,0.2-0.4,0.2-0.6,0.2c-0.2,0-0.4-0.1-0.6-0.2C354.2,10.8,354.1,10.6,354.1,10.4z M354.4,13h1.1v6.9
					h-1.1V13z"/>
				<path class="st0" d="M357.9,8.8h1.1v11.1h-1.1V8.8z"/>
				<path class="st0" d="M367,18.7L367,18.7c-0.2,0.4-0.6,0.7-1,1c-0.5,0.3-1,0.4-1.6,0.4c-0.5,0-0.9-0.1-1.4-0.3
					c-0.4-0.2-0.8-0.4-1.1-0.8c-0.3-0.3-0.6-0.7-0.7-1.1s-0.3-0.9-0.3-1.4s0.1-1,0.3-1.4c0.2-0.4,0.4-0.8,0.7-1.1
					c0.3-0.3,0.7-0.6,1.1-0.8c0.4-0.2,0.9-0.3,1.5-0.3c0.5,0,1,0.1,1.4,0.3c0.4,0.2,0.8,0.5,1.1,0.9h0V8.8h1.1v11.1H367V18.7z
					 M367,16.5c0-0.4-0.1-0.7-0.2-1c-0.1-0.3-0.3-0.6-0.5-0.8c-0.2-0.2-0.5-0.4-0.8-0.5s-0.6-0.2-1-0.2c-0.4,0-0.7,0.1-1,0.2
					s-0.6,0.3-0.8,0.5c-0.2,0.2-0.4,0.5-0.5,0.8c-0.1,0.3-0.2,0.6-0.2,1c0,0.4,0.1,0.7,0.2,1c0.1,0.3,0.3,0.6,0.5,0.8
					c0.2,0.2,0.5,0.4,0.8,0.5c0.3,0.1,0.6,0.2,1,0.2c0.4,0,0.7-0.1,1-0.2c0.3-0.1,0.6-0.3,0.8-0.5c0.2-0.2,0.4-0.5,0.5-0.8
					C367,17.2,367,16.8,367,16.5z"/>
				<path class="st0" d="M374.3,13.9c0.4-0.4,0.8-0.6,1.3-0.8c0.5-0.2,1-0.3,1.5-0.3c1,0,1.8,0.2,2.2,0.7c0.4,0.5,0.7,1.2,0.7,2.2v3
					c0,0.2,0,0.4,0,0.6c0,0.2,0,0.4,0.1,0.6h-1.1c0-0.2-0.1-0.3-0.1-0.5c0-0.2,0-0.4,0-0.5h0c-0.2,0.4-0.5,0.6-0.9,0.9
					c-0.4,0.2-0.8,0.3-1.4,0.3c-0.4,0-0.7,0-1-0.1s-0.6-0.2-0.8-0.4c-0.2-0.2-0.4-0.4-0.5-0.6c-0.1-0.3-0.2-0.5-0.2-0.9
					c0-0.6,0.1-1,0.4-1.3c0.3-0.3,0.7-0.6,1.1-0.7c0.4-0.2,0.9-0.3,1.4-0.3s1-0.1,1.4-0.1h0.4v-0.2c0-0.5-0.1-0.9-0.4-1.1
					c-0.3-0.3-0.7-0.4-1.3-0.4c-0.4,0-0.7,0.1-1.1,0.2c-0.4,0.1-0.7,0.3-0.9,0.6L374.3,13.9z M377.6,16.6c-0.7,0-1.3,0.1-1.7,0.3
					c-0.4,0.2-0.6,0.5-0.6,1c0,0.4,0.1,0.7,0.4,0.9c0.3,0.2,0.6,0.3,1.1,0.3c0.3,0,0.6-0.1,0.9-0.2c0.2-0.1,0.5-0.3,0.6-0.4
					c0.2-0.2,0.3-0.4,0.4-0.7c0.1-0.2,0.1-0.5,0.1-0.8v-0.4H377.6z"/>
				<path class="st0" d="M391.2,11.4c-0.2-0.3-0.5-0.6-0.8-0.7c-0.3-0.2-0.7-0.2-1.1-0.2c-0.3,0-0.5,0-0.8,0.1
					c-0.3,0.1-0.5,0.2-0.7,0.3c-0.2,0.1-0.4,0.3-0.5,0.5c-0.1,0.2-0.2,0.5-0.2,0.8c0,0.2,0,0.4,0.1,0.6s0.2,0.3,0.4,0.5
					c0.2,0.1,0.4,0.3,0.7,0.4c0.3,0.1,0.6,0.3,1,0.4c0.4,0.1,0.8,0.3,1.2,0.4c0.4,0.1,0.7,0.3,1,0.6c0.3,0.2,0.5,0.5,0.7,0.8
					c0.2,0.3,0.3,0.8,0.3,1.3c0,0.5-0.1,1-0.3,1.3s-0.5,0.7-0.8,0.9c-0.3,0.2-0.7,0.4-1.2,0.6c-0.4,0.1-0.9,0.2-1.4,0.2
					c-0.3,0-0.6,0-0.9-0.1c-0.3-0.1-0.6-0.1-0.9-0.3c-0.3-0.1-0.5-0.3-0.8-0.4c-0.2-0.2-0.5-0.4-0.6-0.7l1.1-0.9
					c0.2,0.4,0.5,0.7,0.9,0.9c0.4,0.2,0.8,0.3,1.3,0.3c0.3,0,0.5,0,0.8-0.1c0.3-0.1,0.5-0.2,0.7-0.3c0.2-0.2,0.4-0.3,0.5-0.6
					c0.1-0.2,0.2-0.5,0.2-0.8c0-0.3-0.1-0.6-0.2-0.8c-0.1-0.2-0.3-0.4-0.5-0.5c-0.2-0.1-0.5-0.3-0.9-0.4c-0.3-0.1-0.7-0.3-1.2-0.4
					c-0.4-0.1-0.7-0.3-1-0.4c-0.3-0.2-0.6-0.3-0.8-0.6c-0.2-0.2-0.4-0.5-0.5-0.8c-0.1-0.3-0.2-0.7-0.2-1.1c0-0.5,0.1-0.9,0.3-1.3
					c0.2-0.4,0.5-0.7,0.8-0.9c0.3-0.2,0.7-0.4,1.1-0.6s0.9-0.2,1.3-0.2c0.6,0,1.1,0.1,1.6,0.3c0.5,0.2,0.9,0.5,1.3,0.9L391.2,11.4z"
					/>
				<path class="st0" d="M394.2,13.9c0.4-0.4,0.8-0.6,1.3-0.8c0.5-0.2,1-0.3,1.5-0.3c1,0,1.8,0.2,2.2,0.7c0.4,0.5,0.7,1.2,0.7,2.2v3
					c0,0.2,0,0.4,0,0.6c0,0.2,0,0.4,0.1,0.6h-1.1c0-0.2-0.1-0.3-0.1-0.5c0-0.2,0-0.4,0-0.5h0c-0.2,0.4-0.5,0.6-0.9,0.9
					c-0.4,0.2-0.8,0.3-1.4,0.3c-0.4,0-0.7,0-1-0.1s-0.6-0.2-0.8-0.4c-0.2-0.2-0.4-0.4-0.5-0.6c-0.1-0.3-0.2-0.5-0.2-0.9
					c0-0.6,0.1-1,0.4-1.3c0.3-0.3,0.7-0.6,1.1-0.7c0.4-0.2,0.9-0.3,1.4-0.3s1-0.1,1.4-0.1h0.4v-0.2c0-0.5-0.1-0.9-0.4-1.1
					c-0.3-0.3-0.7-0.4-1.3-0.4c-0.4,0-0.7,0.1-1.1,0.2c-0.4,0.1-0.7,0.3-0.9,0.6L394.2,13.9z M397.5,16.6c-0.7,0-1.3,0.1-1.7,0.3
					c-0.4,0.2-0.6,0.5-0.6,1c0,0.4,0.1,0.7,0.4,0.9c0.3,0.2,0.6,0.3,1.1,0.3c0.3,0,0.6-0.1,0.9-0.2c0.2-0.1,0.5-0.3,0.6-0.4
					c0.2-0.2,0.3-0.4,0.4-0.7c0.1-0.2,0.1-0.5,0.1-0.8v-0.4H397.5z"/>
				<path class="st0" d="M402.4,14H401v-1h1.5v-1.5c0-0.4,0-0.8,0.1-1.2c0.1-0.3,0.2-0.6,0.4-0.9c0.2-0.3,0.4-0.5,0.8-0.6
					c0.3-0.1,0.7-0.2,1.2-0.2c0.1,0,0.3,0,0.5,0s0.3,0.1,0.4,0.1l-0.2,1c-0.3-0.1-0.5-0.1-0.8-0.1c-0.3,0-0.5,0.1-0.7,0.2
					c-0.2,0.1-0.3,0.2-0.4,0.4s-0.1,0.4-0.1,0.7s0,0.5,0,0.8V13h1.7v1h-1.7v5.9h-1.1V14z"/>
				<path class="st0" d="M412.6,18.7c-0.4,0.5-0.9,0.9-1.3,1.1c-0.5,0.2-1.1,0.3-1.7,0.3c-0.5,0-1-0.1-1.5-0.3
					c-0.4-0.2-0.8-0.4-1.1-0.8c-0.3-0.3-0.5-0.7-0.7-1.1c-0.2-0.4-0.2-0.9-0.2-1.4c0-0.5,0.1-1,0.3-1.5s0.4-0.8,0.7-1.1
					c0.3-0.3,0.7-0.6,1.1-0.7c0.4-0.2,0.9-0.3,1.4-0.3c0.5,0,0.9,0.1,1.3,0.2c0.4,0.2,0.7,0.4,1,0.7c0.3,0.3,0.5,0.7,0.7,1.1
					s0.2,1,0.2,1.5v0.4h-5.5c0,0.3,0.1,0.6,0.2,0.8c0.1,0.3,0.3,0.5,0.5,0.7c0.2,0.2,0.4,0.4,0.7,0.5c0.3,0.1,0.6,0.2,0.9,0.2
					c0.5,0,0.9-0.1,1.3-0.3c0.3-0.2,0.7-0.4,0.9-0.8L412.6,18.7z M411.6,15.9c0-0.6-0.2-1.1-0.6-1.4c-0.4-0.4-0.9-0.5-1.5-0.5
					s-1.1,0.2-1.5,0.5c-0.4,0.4-0.6,0.8-0.7,1.4H411.6z"/>
				<path class="st0" d="M414.6,14.7c0-0.3,0-0.6,0-0.9s0-0.5,0-0.7h1.1c0,0.2,0,0.4,0,0.6c0,0.2,0,0.4,0,0.6h0
					c0.1-0.2,0.2-0.3,0.3-0.5c0.1-0.2,0.3-0.3,0.5-0.4c0.2-0.1,0.4-0.2,0.7-0.3c0.2-0.1,0.5-0.1,0.8-0.1c0.1,0,0.2,0,0.2,0
					c0.1,0,0.2,0,0.2,0.1l-0.1,1.2c-0.2-0.1-0.4-0.1-0.6-0.1c-0.7,0-1.2,0.2-1.5,0.7c-0.3,0.5-0.5,1.1-0.5,1.9v3.3h-1.1V14.7z"/>
				<path class="st0" d="M431.4,11.7c-0.3-0.4-0.7-0.7-1.2-0.9c-0.5-0.2-0.9-0.3-1.4-0.3c-0.6,0-1.1,0.1-1.6,0.4s-0.9,0.6-1.3,0.9
					c-0.4,0.4-0.6,0.9-0.8,1.4c-0.2,0.5-0.3,1.1-0.3,1.6c0,0.6,0.1,1.2,0.3,1.7c0.2,0.5,0.5,1,0.8,1.4c0.3,0.4,0.8,0.7,1.2,0.9
					c0.5,0.2,1,0.3,1.6,0.3c0.6,0,1.2-0.1,1.7-0.4c0.5-0.2,0.9-0.6,1.3-1.1l0.9,0.8c-0.5,0.6-1,1.1-1.7,1.4
					c-0.7,0.3-1.4,0.4-2.2,0.4c-0.7,0-1.4-0.1-2.1-0.4c-0.6-0.3-1.2-0.7-1.7-1.1s-0.8-1.1-1.1-1.7c-0.3-0.7-0.4-1.4-0.4-2.2
					c0-0.8,0.1-1.5,0.4-2.1c0.3-0.7,0.6-1.2,1.1-1.7s1-0.9,1.7-1.2c0.6-0.3,1.4-0.4,2.1-0.4c0.7,0,1.4,0.1,2,0.4s1.2,0.7,1.6,1.2
					L431.4,11.7z"/>
				<path class="st0" d="M433.8,16.5c0-0.5,0.1-1,0.3-1.5c0.2-0.4,0.4-0.8,0.8-1.1c0.3-0.3,0.7-0.6,1.2-0.7c0.4-0.2,0.9-0.3,1.5-0.3
					s1,0.1,1.5,0.3c0.5,0.2,0.8,0.4,1.2,0.7c0.3,0.3,0.6,0.7,0.8,1.1s0.3,0.9,0.3,1.5s-0.1,1-0.3,1.5s-0.4,0.8-0.8,1.1
					c-0.3,0.3-0.7,0.6-1.2,0.7c-0.4,0.2-0.9,0.3-1.5,0.3s-1-0.1-1.5-0.3c-0.5-0.2-0.8-0.4-1.2-0.7c-0.3-0.3-0.6-0.7-0.8-1.1
					C433.9,17.5,433.8,17,433.8,16.5z M435.1,16.5c0,0.4,0.1,0.7,0.2,1c0.1,0.3,0.3,0.6,0.5,0.8c0.2,0.2,0.5,0.4,0.8,0.5
					c0.3,0.1,0.6,0.2,1,0.2c0.4,0,0.7-0.1,1-0.2c0.3-0.1,0.6-0.3,0.8-0.5c0.2-0.2,0.4-0.5,0.5-0.8c0.1-0.3,0.2-0.6,0.2-1
					c0-0.4-0.1-0.7-0.2-1c-0.1-0.3-0.3-0.6-0.5-0.8c-0.2-0.2-0.5-0.4-0.8-0.5s-0.6-0.2-1-0.2c-0.4,0-0.7,0.1-1,0.2s-0.6,0.3-0.8,0.5
					c-0.2,0.2-0.4,0.5-0.5,0.8C435.1,15.8,435.1,16.1,435.1,16.5z"/>
				<path class="st0" d="M442.9,14.7c0-0.3,0-0.6,0-0.9s0-0.5,0-0.7h1.1c0,0.2,0,0.4,0,0.6c0,0.2,0,0.4,0,0.6h0
					c0.1-0.2,0.2-0.3,0.3-0.5c0.1-0.2,0.3-0.3,0.5-0.4c0.2-0.1,0.4-0.2,0.7-0.3c0.2-0.1,0.5-0.1,0.8-0.1c0.4,0,0.7,0,0.9,0.1
					c0.3,0.1,0.5,0.2,0.6,0.3c0.2,0.1,0.3,0.3,0.4,0.4c0.1,0.2,0.2,0.3,0.2,0.4c0.3-0.4,0.5-0.7,0.9-1c0.3-0.2,0.8-0.3,1.3-0.3
					c0.5,0,0.9,0.1,1.2,0.2c0.3,0.1,0.6,0.3,0.8,0.6c0.2,0.3,0.4,0.6,0.4,0.9s0.1,0.8,0.1,1.2v4.2h-1.1v-4.1c0-0.2,0-0.5-0.1-0.7
					c0-0.2-0.1-0.4-0.3-0.6c-0.1-0.2-0.3-0.3-0.5-0.4c-0.2-0.1-0.5-0.2-0.8-0.2c-0.2,0-0.5,0-0.7,0.1c-0.2,0.1-0.4,0.2-0.6,0.4
					c-0.2,0.2-0.3,0.4-0.4,0.6c-0.1,0.3-0.1,0.5-0.1,0.8v4h-1.1V16c0-0.8-0.1-1.3-0.3-1.6c-0.2-0.3-0.5-0.5-1-0.5
					c-0.4,0-0.7,0.1-1,0.2c-0.3,0.1-0.5,0.3-0.7,0.5c-0.2,0.2-0.3,0.5-0.4,0.8c-0.1,0.3-0.1,0.7-0.1,1.1v3.3h-1.1V14.7z"/>
				<path class="st0" d="M455.4,14.7c0-0.3,0-0.6,0-0.9s0-0.5,0-0.7h1.1c0,0.2,0,0.4,0,0.6c0,0.2,0,0.4,0,0.6h0
					c0.1-0.2,0.2-0.3,0.3-0.5c0.1-0.2,0.3-0.3,0.5-0.4c0.2-0.1,0.4-0.2,0.7-0.3c0.2-0.1,0.5-0.1,0.8-0.1c0.4,0,0.7,0,0.9,0.1
					c0.3,0.1,0.5,0.2,0.6,0.3c0.2,0.1,0.3,0.3,0.4,0.4c0.1,0.2,0.2,0.3,0.2,0.4c0.3-0.4,0.5-0.7,0.9-1c0.3-0.2,0.8-0.3,1.3-0.3
					c0.5,0,0.9,0.1,1.2,0.2c0.3,0.1,0.6,0.3,0.8,0.6c0.2,0.3,0.4,0.6,0.4,0.9s0.1,0.8,0.1,1.2v4.2h-1.1v-4.1c0-0.2,0-0.5-0.1-0.7
					c0-0.2-0.1-0.4-0.3-0.6c-0.1-0.2-0.3-0.3-0.5-0.4c-0.2-0.1-0.5-0.2-0.8-0.2c-0.2,0-0.5,0-0.7,0.1c-0.2,0.1-0.4,0.2-0.6,0.4
					c-0.2,0.2-0.3,0.4-0.4,0.6c-0.1,0.3-0.1,0.5-0.1,0.8v4H460V16c0-0.8-0.1-1.3-0.3-1.6c-0.2-0.3-0.5-0.5-1-0.5
					c-0.4,0-0.7,0.1-1,0.2c-0.3,0.1-0.5,0.3-0.7,0.5c-0.2,0.2-0.3,0.5-0.4,0.8c-0.1,0.3-0.1,0.7-0.1,1.1v3.3h-1.1V14.7z"/>
				<path class="st0" d="M473.9,18.3c0,0.3,0,0.6,0,0.9c0,0.3,0,0.5,0,0.7h-1.1c0-0.2,0-0.4,0-0.6s0-0.4,0-0.6h0
					c-0.1,0.2-0.2,0.3-0.3,0.5c-0.1,0.2-0.3,0.3-0.5,0.4s-0.4,0.2-0.7,0.3c-0.2,0.1-0.5,0.1-0.8,0.1c-0.5,0-0.8-0.1-1.2-0.2
					c-0.3-0.1-0.6-0.3-0.8-0.6c-0.2-0.2-0.4-0.5-0.5-0.9c-0.1-0.3-0.2-0.7-0.2-1.1V13h1.1v4.1c0,0.6,0.1,1,0.4,1.4
					c0.3,0.3,0.7,0.5,1.2,0.5c0.4,0,0.7-0.1,1-0.2c0.3-0.1,0.5-0.3,0.7-0.5c0.2-0.2,0.3-0.5,0.4-0.8c0.1-0.3,0.1-0.7,0.1-1.1V13h1.1
					V18.3z"/>
				<path class="st0" d="M476.1,14.7c0-0.3,0-0.6,0-0.9s0-0.5,0-0.7h1.1c0,0.2,0,0.4,0,0.6c0,0.2,0,0.4,0,0.6h0
					c0.1-0.2,0.2-0.3,0.3-0.5c0.1-0.2,0.3-0.3,0.5-0.4c0.2-0.1,0.4-0.2,0.7-0.3c0.2-0.1,0.5-0.1,0.8-0.1c0.5,0,0.8,0.1,1.2,0.2
					c0.3,0.1,0.6,0.3,0.8,0.6c0.2,0.2,0.4,0.5,0.5,0.9s0.2,0.7,0.2,1.1v4.2H481v-4.1c0-0.6-0.1-1-0.4-1.4c-0.3-0.3-0.7-0.5-1.2-0.5
					c-0.4,0-0.7,0.1-1,0.2c-0.3,0.1-0.5,0.3-0.7,0.5c-0.2,0.2-0.3,0.5-0.4,0.8c-0.1,0.3-0.1,0.7-0.1,1.1v3.3h-1.1V14.7z"/>
				<path class="st0" d="M484.1,10.4c0-0.2,0.1-0.4,0.2-0.6c0.2-0.2,0.4-0.2,0.6-0.2c0.2,0,0.4,0.1,0.6,0.2c0.2,0.2,0.2,0.4,0.2,0.6
					c0,0.2-0.1,0.4-0.2,0.6c-0.2,0.2-0.4,0.2-0.6,0.2c-0.2,0-0.4-0.1-0.6-0.2C484.2,10.8,484.1,10.6,484.1,10.4z M484.4,13h1.1v6.9
					h-1.1V13z"/>
				<path class="st0" d="M491.5,14h-2v3.4c0,0.2,0,0.4,0,0.6c0,0.2,0,0.4,0.1,0.5s0.2,0.3,0.3,0.3c0.1,0.1,0.3,0.1,0.6,0.1
					c0.2,0,0.3,0,0.5-0.1c0.2,0,0.3-0.1,0.5-0.2l0,1c-0.2,0.1-0.4,0.2-0.7,0.2c-0.2,0-0.5,0.1-0.7,0.1c-0.4,0-0.7-0.1-1-0.2
					s-0.4-0.3-0.6-0.5c-0.1-0.2-0.2-0.4-0.3-0.7c0-0.3-0.1-0.6-0.1-1V14h-1.5v-1h1.5v-2h1.1v2h2V14z"/>
				<path class="st0" d="M495.5,21.5c-0.1,0.3-0.2,0.6-0.4,0.8c-0.1,0.2-0.3,0.4-0.4,0.6c-0.2,0.2-0.4,0.3-0.6,0.4
					c-0.2,0.1-0.5,0.1-0.9,0.1c-0.2,0-0.3,0-0.5,0s-0.3-0.1-0.5-0.1l0.1-1c0.1,0,0.2,0.1,0.4,0.1c0.1,0,0.3,0,0.4,0
					c0.4,0,0.6-0.1,0.8-0.3c0.2-0.2,0.3-0.5,0.5-0.8l0.5-1.3L492,13h1.3l2.1,5.4h0l2-5.4h1.2L495.5,21.5z"/>
			</g>
		</g>
		<g>
			<g>
				<path class="st1" d="M216.4,18.4c0.2-0.2,0.4-0.3,0.7-0.3c0.3,0,0.5,0.1,0.7,0.3c0.2,0.2,0.3,0.4,0.3,0.6s-0.1,0.5-0.3,0.6
					c-0.2,0.2-0.4,0.3-0.7,0.3c-0.3,0-0.5-0.1-0.7-0.3c-0.2-0.2-0.3-0.4-0.3-0.6S216.2,18.6,216.4,18.4z"/>
				<path class="st1" d="M220.5,19.2c-0.6-0.5-0.9-1.2-0.9-2v-0.6c0-0.8,0.3-1.5,0.9-2c0.6-0.5,1.4-0.8,2.2-0.8c1,0,1.8,0.4,2.5,1.1
					l-1.3,0.9c-0.4-0.4-0.8-0.6-1.3-0.6c-0.4,0-0.8,0.2-1.1,0.5c-0.3,0.3-0.5,0.7-0.5,1.2c0,0.5,0.1,0.9,0.4,1.2
					c0.3,0.3,0.7,0.5,1.1,0.5c0.5,0,0.9-0.2,1.3-0.6l1.3,0.9c-0.7,0.7-1.5,1.1-2.5,1.1C221.9,20,221.1,19.7,220.5,19.2z"/>
				<path class="st1" d="M227,19.1c-0.6-0.6-0.9-1.4-0.9-2.3c0-0.9,0.3-1.7,0.9-2.3c0.6-0.6,1.4-0.9,2.3-0.9c0.9,0,1.7,0.3,2.3,0.9
					c0.6,0.6,0.9,1.4,0.9,2.3c0,0.9-0.3,1.7-0.9,2.3c-0.6,0.6-1.4,0.9-2.3,0.9C228.4,20,227.6,19.7,227,19.1z M229.3,18.5
					c0.5,0,0.9-0.2,1.2-0.5c0.3-0.3,0.4-0.7,0.4-1.2c0-0.5-0.1-0.9-0.4-1.2c-0.3-0.3-0.7-0.5-1.2-0.5c-0.5,0-0.9,0.2-1.2,0.5
					c-0.3,0.3-0.4,0.7-0.4,1.2c0,0.5,0.1,0.9,0.4,1.2C228.4,18.3,228.8,18.5,229.3,18.5z"/>
				<path class="st1" d="M235.5,15.9v4h-1.8v-6.1l1.8-0.2v0.6c0.4-0.4,0.9-0.6,1.5-0.6c0.8,0,1.4,0.2,1.8,0.7
					c0.5-0.5,1.2-0.7,2.1-0.7c0.8,0,1.4,0.2,1.8,0.7c0.4,0.5,0.6,1,0.6,1.7V20h-1.8v-3.5c0-0.4-0.1-0.7-0.3-1
					c-0.2-0.2-0.5-0.4-0.9-0.4c-0.4,0-0.7,0.3-0.9,0.7c0,0.1,0,0.3,0,0.4V20h-1.8v-3.5c0-0.4-0.1-0.7-0.3-1
					c-0.2-0.2-0.5-0.4-0.9-0.4C236.1,15.2,235.7,15.4,235.5,15.9z"/>
			</g>
			<path class="st2" d="M2.8,17.1C0.9,15.3,0,13,0,10.2c0-2.7,0.9-5,2.8-6.8c1.8-1.9,4.1-2.8,6.9-2.8c2.8,0,5.1,0.9,7.1,2.6L14.2,6
				c-1.3-1-2.8-1.5-4.5-1.5C7.9,4.5,6.5,5,5.5,6.1c-1.1,1.1-1.6,2.4-1.6,4.1c0,1.8,0.5,3.2,1.6,4.3c1.1,1.1,2.5,1.6,4.2,1.6
				c1.7,0,3.2-0.5,4.5-1.5l2.6,2.8c-2,1.7-4.3,2.6-7.1,2.6C6.9,19.9,4.6,19,2.8,17.1z"/>
			<path class="st2" d="M32.5,11.5l4.8,8.4h-4.4l-4.6-8h-3.5v8h-3.9V0.6h8.4c4.5,0,6.8,1.9,6.8,5.6C36.1,8.9,34.9,10.7,32.5,11.5z
				 M24.8,8.3h5.4c1.6,0,2.4-0.7,2.4-2.1c0-1.3-0.8-1.9-2.4-2h-5.5V8.3z"/>
			<path class="st2" d="M39.4,0.6h3.9v19.3h-3.9V0.6z"/>
			<path class="st2" d="M47.1,19.9V0.6h1.3l8.4,9.5l8.4-9.5h1.3v19.3h-3.9l0-11.2l-5.8,6.4L51,8.7v11.2H47.1z"/>
			<path class="st2" d="M70.3,19.9V0.6l14.2,0v3.6H74.1v4.1h7.7v3.6h-7.7v4.4h10.3v3.6H70.3z"/>
			<path class="st1" d="M88.3,19.9V0.6h1.3l8.4,9.5l8.4-9.5h1.3v19.3h-3.9l0-11.2L98,15.2l-5.8-6.4v11.2H88.3z"/>
			<path class="st1" d="M110.5,19.9l7.7-19.3h3.9l7.7,19.3l-4.1,0l-1.2-3h-8.8l-1.2,3H110.5z M120.3,5.7l-2.9,7.3h5.8L120.3,5.7z"/>
			<path class="st1" d="M132.7,19.9V0.6h8.4c4.5,0,6.8,1.9,6.8,5.6c0,3.9-2.3,5.8-6.8,5.8h-4.6v8H132.7z M136.6,8.3h5.4
				c1.6,0,2.4-0.7,2.4-2.1c0-1.3-0.8-1.9-2.4-2h-5.5V8.3z"/>
			<path class="st1" d="M150.8,19.9V0.6h8.4c4.5,0,6.8,1.9,6.8,5.6c0,3.9-2.2,5.8-6.8,5.8h-4.6v8H150.8z M154.6,8.3h5.4
				c1.6,0,2.4-0.7,2.4-2.1c0-1.3-0.8-1.9-2.4-2h-5.5V8.3z"/>
			<path class="st1" d="M168.8,0.6h3.9v19.3h-3.9V0.6z"/>
			<path class="st1" d="M176.5,19.9V0.6h1.3l12.1,12.1V0.6h3.9v19.3h-1.4l-12-12v12H176.5z"/>
			<path class="st1" d="M199.5,17.1c-1.9-1.8-2.8-4.2-2.8-6.9c0-2.7,0.9-5,2.8-6.8c1.8-1.9,4.1-2.8,6.9-2.8c2.8,0,5.1,0.9,7.1,2.6
				L210.9,6c-1.3-1-2.8-1.5-4.5-1.5c-1.7,0-3.1,0.6-4.2,1.6c-1.1,1.1-1.6,2.4-1.6,4.1c0,1.8,0.5,3.2,1.6,4.3
				c1.1,1.1,2.5,1.6,4.2,1.6c1.4,0,2.5-0.3,3.2-0.8v-3.3l-2.6,0V8.3h6.4v9c-2,1.7-4.3,2.6-7.1,2.6C203.7,19.9,201.4,19,199.5,17.1z"
				/>
			<g>
				<path class="st1" d="M220.9,0.6v1H219V6H218V1.6h-1.8v-1H220.9z"/>
				<path class="st1" d="M221.7,6V0.6h0.4l2.4,2.7l2.4-2.7h0.4V6H226l0-3.2l-1.6,1.8l-1.6-1.8V6H221.7z"/>
			</g>
		</g>
	</g>
</g>
</svg>
